<?xml version="1.0" encoding="UTF-8" standalone="no"?>
<svg
   version="1.1"
   id="logo"
   width="var(--width)"
   height="var(--height)"
   viewBox="0 0 336.33526 258.52237"
   xmlns="http://www.w3.org/2000/svg"
   xmlns:svg="http://www.w3.org/2000/svg">
   <!-- Original aspect ratio: 336x258 -->
  <defs
     id="defs1" />
  <g
     id="g1"
     transform="translate(-574.98243,-331.18218)">
    <path
       id="path1"
       style="fill: var(--fill);fill-opacity:1"
       d="m 742.53112,331.18757 c -0.17602,-0.009 -0.35236,-0.007 -0.52539,0.008 -0.42413,-0.021 -0.88048,0.009 -1.30274,0.12305 -1.12137,0.12 -2.2894,0.44479 -3.50195,0.97461 -0.45369,0.13659 -0.88951,0.34856 -1.27734,0.625 -3.09069,1.66944 -6.54068,5.02626 -10.1543,9.20898 -0.43224,0.27222 -0.7818,0.6682 -0.97852,1.13868 -0.93469,1.12629 -1.80685,1.93334 -2.77343,3.22265 -2.4205,3.2287 -3.95306,4.79993 -4.8418,4.92383 -0.13219,-0.0209 -0.3039,-0.0658 -0.49609,-0.12695 -0.0176,-0.0143 -0.0362,-0.0303 -0.0527,-0.0469 -3.65249,-3.65249 -33.13685,0.37013 -46.05273,6.28321 -6.43767,2.94727 -14.67664,8.70154 -21.18946,14.19726 -0.28743,0.17472 -0.53878,0.40899 -0.73437,0.68359 -5.46272,4.70606 -9.66797,9.16528 -9.66797,11.20508 0,2.60275 2.38871,1.81392 6.05469,-1.99804 5.91274,-6.14818 13.83771,-11.36292 22.57422,-15.35157 1.58877,-0.723 3.1802,-1.44125 4.83593,-2.07617 9.69218,-3.76051 20.12868,-5.97351 29.99805,-5.98047 9.6258,-0.007 10.04158,-0.10073 12.32031,-2.75781 0.26359,-0.30735 0.48405,-0.55613 0.65821,-0.74414 0.22205,-0.17665 0.38917,-0.29349 0.48437,-0.33594 -0.10356,0.29361 -0.67055,1.22619 -1.7168,2.83008 -1.18161,1.81142 -2.95292,4.76094 -4.99609,8.28125 -0.25643,0.28714 -0.47343,0.6131 -0.65039,0.94336 -0.3058,0.5203 -0.64603,1.0932 -0.86719,1.68945 -0.5174,0.90307 -1.0464,1.82988 -1.58203,2.77539 -0.35059,0.31865 -0.63524,0.72093 -0.83789,1.14649 -0.65358,1.20995 -1.34334,2.41758 -1.87695,3.6875 -3.5205,6.32246 -7.02482,12.82388 -9.34571,17.41992 -4.44353,8.79947 -6.90585,12.9445 -19.04492,32.05664 -9.74709,15.34613 -32.60314,51.71086 -41.48242,66 -3.93035,6.325 -10.99233,17.575 -15.69336,25 -2.51181,3.96715 -2.09946,3.80426 -4.48242,7.61523 -10.29386,16.48973 -21.6582,34.82122 -21.6582,35.2129 0,10e-4 -1.2e-4,0.003 0,0.004 2.2e-4,0.001 0.002,0.005 0.002,0.006 4.4e-4,10e-4 10e-4,0.005 0.002,0.006 0.0381,0.0571 0.25728,0.10764 0.56055,0.13281 -1.16612,1.86636 -2.20811,3.79438 -3.12891,5.78125 -0.31948,0.57111 -0.95726,1.59113 -1.25195,2.125 -0.30292,0.1 -0.57749,0.28754 -0.77539,0.53907 -0.15994,0.20697 -0.28337,0.43786 -0.40625,0.66796 -0.16585,0.32196 -0.2163,0.69985 -0.14844,1.05469 -0.23726,0.43716 -0.89269,1.47871 -1.10937,1.88477 -0.30732,0.11356 -0.58187,0.31804 -0.76953,0.58789 -0.18813,0.28093 -0.34554,0.58025 -0.51758,0.87109 -1.32424,2.30498 -2.65219,4.60859 -3.96875,6.91797 -0.36007,0.64536 -0.7242,1.28915 -1.0293,1.96289 -0.10561,0.23331 -0.19389,0.48197 -0.23633,0.73633 -0.30398,0.7299 -3.91406,6.3852 -3.91406,6.64648 0,4.01541 10.02539,-8.20029 26.15234,-29.75586 h 0.28907 l 1.30078,-1.78711 c 0.71581,-0.98257 3.60696,-4.94326 6.42383,-8.80078 0.81082,-1.11037 8.62731,-12.05249 11.65234,-16.26562 4.7473,-6.59512 6.22724,-8.2693 11.94336,-16.30469 6.12795,-8.61433 13.34998,-18.73933 16.04883,-22.5 1.39261,-1.94052 5.80563,-8.12088 9.16211,-12.81641 37.27707,-52.15004 47.41678,-66.40055 59.32226,-81.125 2.8871,-3.5707 3.1375,-4.23095 5.0918,-6.70507 4.11488,-5.28486 10.88772,-13.51095 13.26367,-17.16797 1.30633,-2.01068 2.20993,-3.42935 2.98828,-4.54297 0.15631,-0.20823 0.48898,-0.70532 0.60156,-0.8457 2.1554,-2.81613 2.92046,-1.79228 6.96875,1.29882 1.57093,1.19949 2.9973,2.53442 4.30664,3.95899 0.33466,0.36473 0.64935,0.73972 0.96485,1.11328 3.85612,4.58535 6.44693,10.10802 7.59765,16.07812 0.006,0.0376 0.0114,0.0757 0.0176,0.11329 10e-4,0.006 8.7e-4,0.0118 0.002,0.0176 0.37835,2.09787 0.4597,4.235 0.66015,6.34961 0.002,0.009 0.004,0.0183 0.006,0.0274 0.009,0.42981 0.0109,0.86103 0.006,1.29297 -0.0763,0.29977 -0.0985,0.61397 -0.0605,0.91992 -0.003,0.3624 -0.007,0.71386 -0.0117,1.06054 -0.0515,0.84305 -0.15849,1.69005 -0.26368,2.53711 -0.066,0.56866 -0.15504,1.13314 -0.24414,1.69727 -0.52467,3.14859 -1.39859,6.30349 -2.6875,9.40039 -4.40286,10.57894 -10.72896,18.33003 -33.06054,40.5 -1.10792,1.0999 -1.29849,1.49521 -2.33594,2.53516 -3.54061,3.58333 -7.11536,7.134 -10.49805,10.86523 -1.35424,1.41219 -2.37409,2.49028 -2.90625,3.08008 -2.526,2.79958 -4.69641,5.35477 -6.59375,7.75195 -5.90355,7.52182 -9.38287,13.78565 -10.77344,20.44141 -0.20586,0.73989 -0.38994,1.48746 -0.55078,2.24219 -0.7632,3.60104 -0.91736,7.28636 -0.60156,10.9414 0.55211,17.94248 11.08853,30.76013 26.61719,36.41016 5.23454,2.02489 10.85395,3.0952 16.44922,3.29297 3.74836,0.0158 7.51282,-0.0582 11.2207,-0.66016 0.22728,-0.0342 0.45086,-0.0868 0.67773,-0.12305 9.27707,-1.22604 19.05543,-4.22558 28.85352,-9.4375 15.66758,-8.33409 25.2469,-15.40247 58.41797,-43.09765 17.1023,-14.27905 30.48067,-24.02827 42.9707,-31.90235 3.0191,-1.89571 6.17532,-3.95085 9.07813,-5.55664 4.61416,-2.58131 9.22628,-5.20293 13.66015,-7.13476 0.0849,-0.0369 0.16892,-0.0766 0.25391,-0.11328 5.92127,-2.56606 6.12937,-2.63317 11.9353,-4.69793 3.0805,-1.4083 2.71739,-6.83821 -1.65559,-6.9681 -7.50676,2.55623 -0.50975,0.17806 -0.75196,0.26168 -1.22909,0.41339 -2.4596,0.83296 -3.69336,1.28125 -1.10599,0.40343 -2.19256,0.71198 -3.30468,1.14453 -5.1562,1.99714 -10.38697,4.41846 -15.64063,7.02539 -1.12716,0.56058 -2.24201,1.06338 -3.375,1.65235 -5.29019,2.74511 -10.66374,5.87177 -16.07617,9.23632 -1.18517,0.73706 -2.36554,1.45214 -3.55664,2.21875 -5.51982,3.55102 -11.13186,7.45517 -16.80274,11.65039 -0.50695,0.37609 -0.99595,0.66179 -1.5039,1.04297 -0.2804,0.21043 -1.68106,1.3299 -2.09375,1.64649 -2.93416,2.22775 -5.79397,4.159 -8.77344,6.55859 -48.57006,39.11721 -59.38471,46.51245 -76.58789,52.37891 -42.24813,14.40703 -71.14638,-16.94345 -47.90234,-51.9668 2.89096,-4.35601 11.93548,-14.17654 23.94531,-26 11.56504,-11.38558 18.71024,-19.05348 24.03125,-25.77148 0.0525,-0.0651 0.20722,-0.21003 0.25976,-0.27539 0.0656,-0.0816 0.1127,-0.16454 0.17774,-0.2461 6.83918,-8.74442 10.16958,-15.69174 12.58594,-25.20703 4.41087,-17.3694 -3.3188,-38.64285 -17.52735,-48.23828 -2.25245,-1.52113 -4.2821,-2.90944 -4.83594,-3.30664 h -0.002 c -0.0679,-0.0758 -0.12058,-0.14423 -0.1582,-0.20508 -0.002,-0.57352 0.95558,-3.15387 2.2793,-6.10352 2.76536,-6.16203 3.44997,-11.505 2.05859,-15.47265 -0.365,-1.12012 -0.91869,-2.17128 -1.70703,-3.08789 -0.42453,-0.55892 -0.9369,-1.13862 -1.55274,-1.4961 -0.97771,-0.79174 -2.00998,-1.35033 -3.09765,-1.67578 -0.44921,-0.25336 -0.97782,-0.39151 -1.50586,-0.41992 z m 0.0371,5.00586 c 2.24693,0 -1.76379,3.1052 -6.4336,4.98047 -1.88027,0.75506 -5.54787,4.01306 -8.36328,7.43164 -3.93627,4.77957 -6.0853,7.20484 -6.24414,7.08789 -5.8e-4,-9.1e-4 -0.003,-0.005 -0.004,-0.006 -0.0415,-0.13222 0.58181,-1.1203 1.91406,-2.99414 0.34818,-0.48972 0.70139,-0.97366 1.05859,-1.45117 0.61988,-0.36735 1.0866,-1.00921 1.31445,-1.70313 6.12097,-7.7094 13.08239,-13.3457 16.75782,-13.3457 z m -7.92383,0.14648 c 0.0287,0.0716 0.0609,0.14229 0.0957,0.21094 -0.0881,0.11969 -0.20496,0.26741 -0.34765,0.43946 -0.0719,-0.0928 -0.14923,-0.18106 -0.23438,-0.26172 0.19735,-0.16685 0.36024,-0.29783 0.48633,-0.38868 z m -9.46484,9.5625 c 0.0442,0.0511 0.0905,0.10114 0.13867,0.14844 -0.13021,0.0935 -0.21893,0.14258 -0.25977,0.14258 -10e-4,0 -0.005,-3e-5 -0.006,0 h -0.002 l -0.002,-0.002 c -3.7e-4,-1.7e-4 -0.005,-0.002 -0.006,-0.002 v -0.002 h -0.002 l -0.002,-0.002 -0.002,-0.002 -0.002,-0.002 v -0.002 -0.002 h -0.002 v -0.002 c -0.005,-0.0384 0.0468,-0.13234 0.14649,-0.27344 z m 13.33789,0.68946 c 0.0236,-5e-5 0.0472,8.6e-4 0.0684,0.004 0.0358,0.0126 0.0712,0.0289 0.10546,0.0469 0.1322,0.25238 0.21259,0.51949 0.25782,0.79492 0.01,0.25604 0.004,0.57149 -0.002,0.94922 -0.008,0.49383 -0.0537,0.94906 -0.11328,1.39062 -0.12545,0.68276 -0.29444,1.3545 -0.49609,2.01758 -0.82249,2.0327 -2.40253,2.94975 -4.29102,2.24024 -1.33909,-0.50311 -3.12859,-0.64766 -3.97656,-0.32227 -0.0918,0.0352 -0.17293,0.063 -0.24414,0.082 -0.19127,-0.0282 -0.32725,-0.0681 -0.40039,-0.11718 0.0342,-0.75078 3.6107,-4.08745 6.49609,-5.79102 1.43051,-0.84458 2.19377,-1.29381 2.59571,-1.29492 z m -9.07422,2.92383 c 0.0226,0.0281 0.0459,0.054 0.0703,0.0801 l -0.15234,0.12696 c -0.0319,-0.0122 -0.065,-0.023 -0.0977,-0.0332 z m -11.8086,6.92382 c 0.0892,0.0773 0.184,0.14708 0.28321,0.21094 -0.14824,0.14696 -0.26665,0.24951 -0.34961,0.30078 -0.006,0.004 -0.0137,0.008 -0.0195,0.0117 -0.0356,-0.0217 -0.0707,-0.0427 -0.10743,-0.0625 0.0155,-0.0905 0.0819,-0.24696 0.19336,-0.46094 z m 2.67578,1.09961 c 0.28129,1.1e-4 -0.0422,0.81396 -0.83984,2.03125 -0.94531,1.44271 -1.90758,2.62305 -2.13867,2.62305 -0.0212,0 -0.0386,-0.003 -0.0547,-0.01 0.59841,-0.92228 1.16549,-1.90381 1.375,-2.98632 0.5042,-0.70653 1.04125,-1.32617 1.43945,-1.57227 0.0944,-0.0583 0.16666,-0.086 0.21875,-0.0859 z m 4.95704,1.93555 3.17773,2.10938 3.17578,2.10937 -4.93555,7 c -2.71406,3.85008 -6.77638,8.9125 -9.02734,11.25 -8.83119,9.17069 -7.182,1.81897 3.43945,-15.61914 0.28342,-0.46978 0.38892,-0.65578 0.6543,-1.0918 z m 7.26757,3.7207 c 1.52965,0.86042 3.10806,1.63491 4.67383,2.43164 -0.17632,9.7e-4 -0.35298,0.004 -0.52929,0.008 -0.41885,-0.003 -0.84358,0.002 -1.26758,0.0273 h -0.002 l -0.5664,-0.48437 -2.31641,-1.97852 c 0.002,-9.3e-4 0.005,-0.003 0.008,-0.004 z m -17.20703,1.70508 h 0.002 0.002 0.002 0.002 0.002 c 0.003,4.7e-4 0.004,10e-4 0.006,0.002 h 0.002 l 0.002,0.002 h 0.002 0.002 l 0.002,0.002 0.002,0.002 h 0.002 c 6.4e-4,8.2e-4 10e-4,0.005 0.002,0.006 0.13613,0.25515 -1.35993,3.53424 -3.8164,8.2793 -0.44365,0.85698 -0.80288,1.98398 -1.27539,2.95898 -0.27557,0.5818 -0.56909,1.1858 -0.83399,1.75586 -0.25951,0.57555 -0.50227,1.15812 -0.72265,1.75 -0.42971,0.94628 -0.69004,1.71642 -1.08985,2.63086 -1.72122,3.93732 -3.72878,8.02024 -4.67383,10.84375 -1.42924,4.27017 -2.80654,7.49183 -6.72851,13.98828 -0.0949,0.16025 -0.27522,0.43187 -0.37305,0.59571 -3.9913,6.56692 -10.59057,16.52197 -22.30078,33.99219 -0.32047,0.47756 -0.45885,0.68005 -0.78125,1.16015 -17.22648,25.68642 -26.4012,39.11433 -26.9082,39.2832 -0.0102,-0.01 -0.0176,-0.0226 -0.0215,-0.041 0.10855,-0.57248 3.88409,-6.75687 11.22461,-18.41797 32.14737,-51.0691 38.12609,-61.02999 46.81641,-78 1.26267,-2.46568 2.52218,-4.88907 3.71875,-7.16016 0.12542,-0.17689 0.23318,-0.36554 0.32226,-0.56054 0.55128,-0.9799 1.08898,-1.97523 1.56641,-2.9961 0.76917,-1.43599 1.49174,-2.77047 2.14844,-3.96484 0.0949,-0.0862 0.1836,-0.17952 0.26367,-0.2832 0.73319,-0.98298 1.34378,-2.0868 1.72461,-3.25586 0.66709,-1.1517 1.15922,-1.94634 1.41797,-2.2793 0.14473,-0.18623 0.24013,-0.28228 0.29101,-0.29297 z m 10.32813,11.22656 c -0.13116,0.39562 -0.25217,0.81202 -0.30469,1.21875 -0.85652,0.92751 -1.36719,1.11979 -1.36719,0.47071 0,-0.20208 0.74476,-0.95357 1.67188,-1.68946 z m -1.23438,2.6211 v 0.002 0.002 c 7e-5,9.9e-4 2e-5,0.007 0,0.008 v 0.002 l -2.68945,2.98633 c -3.31582,3.68324 -3.63208,5.49528 -0.5,2.86523 0.42826,-0.35961 0.67443,-0.52063 0.74219,-0.50586 h 0.004 l 0.002,0.002 h 0.002 l 0.002,0.002 0.002,0.002 0.002,0.002 v 0.002 l 0.002,0.002 c 0.0401,0.10586 -0.45898,0.75584 -1.44336,1.83985 -1.6154,1.7789 -3.16712,3.23437 -3.44922,3.23437 -0.2821,0 -0.008,-0.50406 0.60938,-1.12109 0.61706,-0.61702 0.92,-1.64755 0.67383,-2.28907 -0.24617,-0.64152 1.02646,-2.49994 2.82812,-4.1289 z m 1.34571,0.24219 c 0.0674,0.0747 0.14447,0.14826 0.23046,0.21679 -0.23176,0.31453 -0.46653,0.62678 -0.70312,0.9375 l -0.62305,0.54883 z m -17.26563,6.9746 c 0.12466,0 0.23892,0.0414 0.3457,0.13086 0.15659,0.22694 0.29779,0.61383 0.43555,1.14063 0.46633,1.78319 1.10498,2.1132 3.29102,1.69531 1.31187,-0.25078 1.78244,-0.18056 1.17382,0.69141 -0.14418,0.22867 -0.99492,1.12184 -1.51953,1.7207 -0.67519,0.6971 -1.47667,1.49719 -2.59375,2.58789 -2.91069,2.84198 -4.77553,5.11448 -5.44336,6.55078 -0.49861,-0.10172 -1.0155,-0.15014 -1.50781,-0.11718 0.67085,-1.62217 1.28458,-3.27208 1.76367,-4.76954 1.78287,-5.57259 2.84851,-8.48535 3.58008,-9.40625 0.16508,-0.15915 0.31829,-0.22461 0.47461,-0.22461 z m 2.98047,8.72852 -2.9375,3.25 c -0.47481,0.5254 -0.89045,0.98037 -1.25586,1.36914 -0.61501,0.49587 -1.26519,0.91704 -1.98633,1.14453 0.52601,-0.58034 1.64374,-1.66403 2.92969,-2.82617 z m -16.70703,2.98047 h 0.002 0.002 0.002 c 0.002,3e-5 0.004,-1.4e-4 0.006,0 h 0.002 0.002 0.002 l 0.002,0.002 h 0.002 l 0.002,0.002 0.002,0.002 h 0.002 l 0.002,0.002 c 0.17587,0.17484 -0.57656,2.04827 -1.67188,4.16406 -1.09531,2.1158 -2.71137,4.74766 -3.5918,5.84766 -0.1754,0.21914 -0.28746,0.31986 -0.33789,0.31445 h -0.002 -0.002 -0.002 l -0.002,-0.002 h -0.002 c -3.8e-4,-2.5e-4 -0.005,-0.001 -0.006,-0.002 v -0.002 l -0.002,-0.002 -0.002,-0.002 c -0.11273,-0.1639 0.64932,-1.87279 2.02735,-4.46875 1.72639,-3.25221 3.28493,-5.80668 3.56445,-5.85547 z m -11.23633,18.51953 h 0.002 c 0.004,-2.1e-4 0.01,0 0.0137,0 0.275,0 0.0184,0.9 -0.57032,2 -0.5887,1.1 -1.29531,2 -1.57031,2 -0.275,0 -0.0184,-0.9 0.57031,-2 0.57834,-1.08064 1.26977,-1.96909 1.55469,-2 z m -3,5 h 0.002 c 0.004,-2.1e-4 0.01,0 0.0137,0 0.275,0 0.0184,0.9 -0.57032,2 -0.5887,1.1 -1.29531,2 -1.57031,2 -0.275,0 -0.0184,-0.9 0.57031,-2 0.57834,-1.08064 1.26977,-1.96909 1.55469,-2 z m -5.08008,8.35742 c 0.0311,0.028 0.0586,0.0676 0.0781,0.11328 -0.2308,0.82263 -3.6299,6.30327 -7.72852,12.69532 -0.58522,0.92076 -0.73097,1.21548 -1.32422,2.13281 -3.18611,4.89397 -5.10378,7.68978 -5.35547,7.74023 -0.009,-0.002 -0.0177,-0.006 -0.0254,-0.01 -0.035,-0.0752 0.1886,-0.57764 0.55469,-1.3125 0.5928,-1.4 3.73234,-5.89482 7.26172,-11.36328 2.8235,-4.35009 5.80468,-9.28731 6.375,-9.85352 0.0686,-0.0681 0.12321,-0.11591 0.16406,-0.14258 z m -18.91992,29.64258 h 0.002 c 0.004,-2.1e-4 0.01,0 0.0137,0 0.275,0 0.0184,0.9 -0.57032,2 -0.5887,1.1 -1.29531,2 -1.57031,2 -0.275,0 -0.0184,-0.9 0.57031,-2 0.57834,-1.08064 1.26977,-1.96909 1.55469,-2 z m -2.48437,4.54688 c 0.002,0.003 0.006,0.01 0.008,0.0137 l -0.95117,1.93945 c -0.54004,1.1 -1.71569,2.9 -2.61133,4 l -1.62696,2 0.98047,-2 c 0.54004,-1.1 1.71569,-2.9 2.61133,-4 z m -4.90625,7.95312 -1.68946,3.06641 c -0.92969,1.68633 -2.57896,4.16133 -3.66601,5.5 l -1.95899,2.41211 c -7e-4,-10e-4 -0.003,-0.003 -0.004,-0.004 l 1.67578,-3.04102 c 0.92969,-1.68633 2.57896,-4.16133 3.66601,-5.5 z m -31.82813,50.14453 c 0.11541,0.0794 0.23902,0.14556 0.36914,0.19922 -0.11316,0.10036 -0.20707,0.15625 -0.27539,0.15625 -0.10527,0 -0.13309,-0.13096 -0.0937,-0.35547 z m -6.16016,12.69531 c 0.10575,0.003 0.19736,0.0136 0.27149,0.0312 0.004,10e-4 0.006,0.003 0.01,0.004 -0.20316,0.27507 -0.40384,0.55086 -0.60742,0.82617 -0.43228,0.18753 -0.97407,0.34674 -1.47265,0.41992 -0.85951,0.12614 -1.28272,-0.0512 -0.94141,-0.39257 0.34132,-0.34131 1.32411,-0.72346 2.18359,-0.84961 0.21488,-0.0315 0.40137,-0.0432 0.55664,-0.0391 z m -5.46875,5.67774 h 0.002 0.002 0.002 c 0.002,4e-4 0.004,10e-4 0.006,0.002 h 0.002 l 0.002,0.002 h 0.002 l 0.002,0.002 h 0.002 c 0.0628,0.0613 -0.0921,0.52411 -0.39649,1.39062 -0.48972,1.39407 -0.32711,1.70045 0.59766,1.12891 0.20231,-0.12504 0.36493,-0.21221 0.48828,-0.25977 -0.71678,1.15026 -1.5364,2.24142 -2.19531,3.42188 -0.17233,-0.20578 -0.34404,-0.57886 -0.54688,-1.10742 -0.29607,-0.77154 0.10596,-2.23404 0.89454,-3.25 0.67834,-0.87398 1.03016,-1.32053 1.13671,-1.33008 z m 1.41407,0.65625 c 0.0197,0.0631 0.0425,0.12502 0.0684,0.18555 -0.0468,0.0103 -0.0819,0.0116 -0.10352,0.002 -0.0126,-0.0221 -0.0182,-0.0469 -0.0195,-0.0742 0.008,-0.0297 0.0259,-0.0683 0.0547,-0.11328 z m -3.78321,4.79883 c 0.32117,0.004 0.54825,0.22904 0.62891,0.71093 -0.053,0.10459 -0.10445,0.21008 -0.1543,0.31641 -0.0308,0.0962 -0.0519,0.19133 -0.0644,0.28516 -0.0441,-0.002 -0.0932,-0.005 -0.14648,-0.0117 -0.16513,-0.0391 -0.37059,-0.12891 -0.5918,-0.26563 -0.30291,-0.1872 -0.49079,-0.16051 -0.54883,0.041 -0.23647,-0.044 -0.47672,-0.064 -0.71484,-0.0644 0.61145,-0.65702 1.17887,-1.01728 1.59179,-1.01172 z" />
  </g>
  <g
     id="layer1"
     transform="translate(-574.98243,-331.18218)" />
  <path
     style="fill:var(--fill);fill-opacity:1;stroke-width:0.0449712"
     d="m 30.455171,207.83128 c -0.769575,-0.0159 -1.373081,0.53947 -1.785674,1.13289 -1.038905,1.25087 -1.800389,2.87051 -1.614308,4.53015 0.109758,0.68094 0.385193,1.34231 0.773389,1.91017 0.641487,0.86402 2.064965,0.87705 2.738668,0.0457 0.504025,-0.71004 0.953112,-1.46153 1.433882,-2.18888 0.380253,-0.57018 0.768177,-1.25344 0.543123,-1.96009 -0.08929,-0.33226 -0.288075,-0.63511 -0.558742,-0.84762 0.233289,-0.58027 0.392266,-1.27996 0.01722,-1.83815 -0.302494,-0.54501 -0.938289,-0.82254 -1.547553,-0.78415 z"
     id="path2" />
  <path
     style="fill:var(--fill);fill-opacity:1;stroke-width:0.0449712"
     d="m 27.354704,213.40868 c -1.231768,0.0248 -2.238105,1.38678 -1.808246,2.56512 0.259012,0.78301 1.107601,1.21603 1.901351,1.13525 0.512231,-0.0372 0.996254,-0.29034 1.379372,-0.61858 0.633798,-0.58317 0.619509,-1.61524 0.10784,-2.27257 -0.342873,-0.51961 -0.956885,-0.83899 -1.580317,-0.80922 z"
     id="path3" />
  <path
     style="fill:var(--fill);fill-opacity:1;stroke-width:0.0449712"
     d="m 36.121631,201.76887 c -1.213232,0.0726 -2.450485,0.39453 -3.459972,1.09028 -0.805143,0.53895 -1.15225,1.72611 -0.591183,2.55587 0.460167,0.73346 1.428792,0.91919 2.230963,0.81372 0.783366,-0.12303 1.589942,-0.27369 2.292683,-0.65431 0.538739,-0.37818 0.949449,-0.93351 1.236661,-1.51969 0.394402,-0.90516 -0.216261,-2.0436 -1.181525,-2.23249 -0.172407,-0.0417 -0.350599,-0.0555 -0.527627,-0.0534 z"
     id="path4" />
  <path
     style="fill:var(--fill);fill-opacity:1;stroke-width:0.0449712"
     d="m 42.141361,189.13802 c -0.855687,0.10786 -1.489467,0.95786 -1.396391,1.80684 0.01088,0.94854 0.920578,1.77353 1.870144,1.6299 0.920047,-0.0966 1.71322,-0.9734 1.581835,-1.91677 -0.125427,-0.9575 -1.123457,-1.62688 -2.055588,-1.51997 z"
     id="path5" />
</svg>
